<svg xmlns="http://www.w3.org/2000/svg" xmlns:xlink="http://www.w3.org/1999/xlink" width="221.999" height="222" viewBox="0 0 221.999 222">
  <defs>
    <clipPath id="clip-path">
      <rect id="Rectangle_3149" data-name="Rectangle 3149" width="221.999" height="222" rx="30" fill="#fff"/>
    </clipPath>
  </defs>
  <g id="Group_8397" data-name="Group 8397" opacity="0.5">
    <g id="Mask_Group_32" data-name="Mask Group 32" transform="translate(0)" clip-path="url(#clip-path)">
      <rect id="Rectangle_3148" data-name="Rectangle 3148" width="326.752" height="326.752" transform="translate(-52.376 -52.376)" fill="#fff"/>
      <ellipse id="Ellipse_37" data-name="Ellipse 37" cx="128.664" cy="128.664" rx="128.664" ry="128.664" transform="translate(43.365 -42.556)" fill="#fff"/>
      <ellipse id="Ellipse_38" data-name="Ellipse 38" cx="117.094" cy="117.094" rx="117.094" ry="117.094" transform="translate(-33.76 106.649)" fill="#fff"/>
      <ellipse id="Ellipse_39" data-name="Ellipse 39" cx="101.358" cy="101.358" rx="101.358" ry="101.358" transform="translate(-82.088 9.642)" fill="#fff"/>
      <ellipse id="Ellipse_40" data-name="Ellipse 40" cx="89.317" cy="89.317" rx="89.317" ry="89.317" transform="translate(54.151 -63.768)" fill="#fff"/>
    </g>
    <g id="Group_8203" data-name="Group 8203" transform="translate(30.417 27.127)">
      <path id="Path_5667" data-name="Path 5667" d="M89.425,85.636a34.946,34.946,0,0,1-4.6.239A35.15,35.15,0,0,0,71.052,58.447a34.03,34.03,0,0,0-4-2.65A31.2,31.2,0,1,1,107.9,53.63c-.66.638-1.345,1.24-2.047,1.809l-.012.012a34.93,34.93,0,0,0-3.158,2.244.075.075,0,0,0-.037.024q-1.3,1.034-2.514,2.211a34.98,34.98,0,0,0-10.71,25.706" transform="translate(-3.771 0)" fill="#1a1a1a"/>
      <path id="Path_5668" data-name="Path 5668" d="M88.142,86.081a34.89,34.89,0,0,0-.319,4.6,35.157,35.157,0,0,1,27.187,14.245,34.162,34.162,0,0,1,2.579,4.05,31.457,31.457,0,0,0,2.874,3.3,31.2,31.2,0,1,0,0-44.116q-.974.975-1.844,2.016l-.012.013a34.941,34.941,0,0,1-2.3,3.119.078.078,0,0,1-.024.036q-1.058,1.278-2.255,2.476A34.985,34.985,0,0,1,88.142,86.081" transform="translate(-6.018 -4.045)" fill="#1a1a1a"/>
      <path id="Path_5669" data-name="Path 5669" d="M85.572,90.346a34.883,34.883,0,0,0,.319-4.6A35.157,35.157,0,0,1,58.7,71.5a34.159,34.159,0,0,1-2.579-4.05,31.458,31.458,0,0,0-2.874-3.3,31.2,31.2,0,1,0,0,44.116q.974-.975,1.844-2.016l.012-.013a34.943,34.943,0,0,1,2.3-3.119.078.078,0,0,1,.024-.036q1.058-1.278,2.255-2.476A34.985,34.985,0,0,1,85.572,90.346" transform="translate(0.001 -3.771)" fill="#1a1a1a"/>
      <path id="Path_5670" data-name="Path 5670" d="M85.088,88.132a34.953,34.953,0,0,1,4.6-.239,35.149,35.149,0,0,0,13.773,27.429,34.029,34.029,0,0,0,4,2.65,31.2,31.2,0,1,1-40.856,2.167c.66-.638,1.345-1.24,2.047-1.809l.012-.012a34.935,34.935,0,0,0,3.158-2.244.075.075,0,0,0,.037-.024q1.3-1.034,2.514-2.211a34.98,34.98,0,0,0,10.71-25.706" transform="translate(-3.912 -6.024)" fill="#1a1a1a"/>
    </g>
  </g>
</svg>
