<svg xmlns="http://www.w3.org/2000/svg" xmlns:xlink="http://www.w3.org/1999/xlink" width="193.517" height="222.919" viewBox="0 0 193.517 222.919">
  <defs>
    <linearGradient id="linear-gradient" x1="0.166" y1="0.878" x2="0.917" y2="0.874" gradientUnits="objectBoundingBox">
      <stop offset="0" stop-color="#19ffce"/>
      <stop offset="1" stop-color="#0057ff"/>
    </linearGradient>
  </defs>
  <g id="Group_8204" data-name="Group 8204" transform="translate(0.5 0.5)">
    <path id="Subtraction_1" data-name="Subtraction 1" d="M71.408,221.918a101.271,101.271,0,0,1-19.463-1.8,79.865,79.865,0,0,1-17.221-5.408,60.96,60.96,0,0,1-14.4-8.961A57.406,57.406,0,0,1,9.311,193.285a54.072,54.072,0,0,1-6.983-15.978,83.2,83.2,0,0,1-.682-36,51.952,51.952,0,0,1,4.936-13.617,55.046,55.046,0,0,1,7.771-10.99A53.3,53.3,0,0,1,24.5,108.088a81.233,81.233,0,0,1,12.128-6.51,94.519,94.519,0,0,1,13.7-4.69,195.551,195.551,0,0,1,30.453-5.322c12.462-1.3,22.637-2.548,30.243-3.709s13.223-2.928,16.66-5.252c.359-.242.7-.5,1.027-.769h23.631V108.2h20.279V81.836h19.889V217.858H135.953V188.035h-1.68a60.094,60.094,0,0,1-13.862,17.71,58.081,58.081,0,0,1-9.556,6.793,68.731,68.731,0,0,1-11.3,5.11,72.946,72.946,0,0,1-13.127,3.2A100.582,100.582,0,0,1,71.408,221.918Zm61.884-103.749h0a30.693,30.693,0,0,1-7.631,3.289c-3.2.976-6.851,1.871-10.85,2.661-3.961.783-8.012,1.49-12.04,2.1-3.66.555-7.335,1.1-10.922,1.61a74.219,74.219,0,0,0-18.342,4.9,29.718,29.718,0,0,0-12.18,9.031,20.213,20.213,0,0,0-3.255,6.353,26.206,26.206,0,0,0-1.085,7.718,24.669,24.669,0,0,0,2.222,10.729,20.464,20.464,0,0,0,6.668,7.823,32.275,32.275,0,0,0,10.1,4.778,46.3,46.3,0,0,0,12.515,1.592,56.4,56.4,0,0,0,12.391-1.312A44.877,44.877,0,0,0,111.73,175.5a43.549,43.549,0,0,0,9-6.177,39.3,39.3,0,0,0,6.827-8.034,35.737,35.737,0,0,0,4.3-9.556,39.51,39.51,0,0,0,1.435-10.746V118.169ZM62.727,68.324,7.562,63.844a80.239,80.239,0,0,1,6.23-18.288A73.329,73.329,0,0,1,24.082,29.891,74.938,74.938,0,0,1,38.205,17.185,88.3,88.3,0,0,1,55.936,7.77,105.331,105.331,0,0,1,77.025,1.941a149.84,149.84,0,0,1,41.759-.892A133.94,133.94,0,0,1,135.6,4.2a97.909,97.909,0,0,1,15.542,5.355,85.652,85.652,0,0,1,13.722,7.665,64.343,64.343,0,0,1,11.463,10.064A65.112,65.112,0,0,1,185.1,39.832a62.65,62.65,0,0,1,6.724,21.725H172.628V35.2H152.349V61.557H131.486a23.268,23.268,0,0,0-6.945-10.735,27.454,27.454,0,0,0-10.064-5.458,46.109,46.109,0,0,0-13.527-1.821,54.629,54.629,0,0,0-14.457,1.768,33.6,33.6,0,0,0-11.165,5.3,35.915,35.915,0,0,0-7.912,7.963,32.2,32.2,0,0,0-4.689,9.746Z" transform="translate(-0.001 0.001)" stroke="rgba(0,0,0,0)" stroke-width="1" fill="url(#linear-gradient)"/>
  </g>
</svg>
