<svg xmlns="http://www.w3.org/2000/svg" width="193.517" height="222.917" viewBox="0 0 193.517 222.917">
  <g id="Group_8204" data-name="Group 8204" transform="translate(0.501 0.499)" opacity="0.5">
    <path id="Subtraction_1" data-name="Subtraction 1" d="M71.409,221.917a101.3,101.3,0,0,1-19.464-1.8,79.866,79.866,0,0,1-17.221-5.407,60.96,60.96,0,0,1-14.4-8.962A57.469,57.469,0,0,1,9.31,193.284a54.107,54.107,0,0,1-6.983-15.978,83.169,83.169,0,0,1-.682-36,51.967,51.967,0,0,1,4.937-13.617,55.055,55.055,0,0,1,7.77-10.99A53.371,53.371,0,0,1,24.5,108.087a81.2,81.2,0,0,1,12.129-6.509,94.544,94.544,0,0,1,13.7-4.69,195.489,195.489,0,0,1,30.455-5.322c12.477-1.3,22.652-2.55,30.242-3.709,7.616-1.162,13.222-2.929,16.66-5.252.365-.247.711-.506,1.029-.77h23.63V108.2h20.278V81.835h19.89V217.857H135.953V188.035h-1.682a59.568,59.568,0,0,1-6.054,9.468,61.294,61.294,0,0,1-7.8,8.243,58.144,58.144,0,0,1-9.557,6.792,68.732,68.732,0,0,1-11.305,5.11,72.926,72.926,0,0,1-13.127,3.2A100.574,100.574,0,0,1,71.409,221.917Zm61.883-103.749h0a30.745,30.745,0,0,1-7.632,3.29,111.51,111.51,0,0,1-10.849,2.66c-3.953.783-8,1.49-12.04,2.1-3.74.568-7.414,1.11-10.923,1.611a74.16,74.16,0,0,0-18.34,4.9,34.541,34.541,0,0,0-6.966,3.938,26.11,26.11,0,0,0-5.214,5.093,20.225,20.225,0,0,0-3.255,6.354,26.179,26.179,0,0,0-1.086,7.718,24.658,24.658,0,0,0,2.222,10.728,20.456,20.456,0,0,0,6.669,7.823,32.3,32.3,0,0,0,10.1,4.778,46.278,46.278,0,0,0,12.513,1.593,56.379,56.379,0,0,0,12.392-1.313,44.9,44.9,0,0,0,10.851-3.939,43.524,43.524,0,0,0,8.995-6.177,39.2,39.2,0,0,0,6.826-8.033,35.744,35.744,0,0,0,4.306-9.556,39.5,39.5,0,0,0,1.435-10.746V118.169ZM62.727,68.325,7.561,63.843a80.206,80.206,0,0,1,6.23-18.287A73.347,73.347,0,0,1,24.082,29.891,74.965,74.965,0,0,1,38.2,17.186a88.368,88.368,0,0,1,17.73-9.415,105.268,105.268,0,0,1,21.09-5.829A143.9,143.9,0,0,1,101.232,0a145.372,145.372,0,0,1,17.552,1.049A133.759,133.759,0,0,1,135.6,4.2a97.894,97.894,0,0,1,15.541,5.356,85.715,85.715,0,0,1,13.723,7.665,64.4,64.4,0,0,1,11.463,10.065A65.1,65.1,0,0,1,185.1,39.832a57.374,57.374,0,0,1,4.255,10.214,69.044,69.044,0,0,1,2.469,11.511H172.627V35.2H152.349V61.557H131.487a23.267,23.267,0,0,0-6.946-10.735,27.466,27.466,0,0,0-10.064-5.459,46.1,46.1,0,0,0-13.526-1.821,54.625,54.625,0,0,0-14.457,1.768,33.607,33.607,0,0,0-11.166,5.3,35.886,35.886,0,0,0-7.911,7.963,32.2,32.2,0,0,0-4.691,9.747h0Z" transform="translate(-0.001 0.001)" fill="#fff" stroke="rgba(0,0,0,0)" stroke-width="1"/>
  </g>
</svg>
