<svg xmlns="http://www.w3.org/2000/svg" xmlns:xlink="http://www.w3.org/1999/xlink" width="192.517" height="41.23" viewBox="0 0 192.517 41.23">
  <defs>
    <linearGradient id="linear-gradient" x1="0.273" y1="0.342" x2="0.768" y2="1.179" gradientUnits="objectBoundingBox">
      <stop offset="0" stop-color="#19d0f8"/>
      <stop offset="1" stop-color="#005dff"/>
    </linearGradient>
    <linearGradient id="linear-gradient-2" x1="0.679" y1="0.06" x2="0.378" y2="1.081" gradientUnits="objectBoundingBox">
      <stop offset="0" stop-color="#d4ff6a"/>
      <stop offset="1" stop-color="#00e9b8"/>
    </linearGradient>
    <linearGradient id="linear-gradient-3" x1="0.665" y1="0.257" x2="0.319" y2="1.198" xlink:href="#linear-gradient-2"/>
  </defs>
  <g id="Group_69" data-name="Group 69" transform="translate(-101.295 -81.295)">
    <path id="Path_21" data-name="Path 21" d="M6.455-.707A6.691,6.691,0,0,1,3.693-1.25,4.365,4.365,0,0,1,1.78-2.863a4.778,4.778,0,0,1-.7-2.672,4.72,4.72,0,0,1,.5-2.266A4.011,4.011,0,0,1,2.923-9.277a6.536,6.536,0,0,1,1.945-.843,14.644,14.644,0,0,1,2.293-.4q1.412-.148,2.277-.279a3.18,3.18,0,0,0,1.254-.4.88.88,0,0,0,.39-.78v-.063a1.948,1.948,0,0,0-.627-1.549,2.615,2.615,0,0,0-1.776-.548A3.164,3.164,0,0,0,6.75-13.6,2.5,2.5,0,0,0,5.8-12.27l-4.153-.337a5.68,5.68,0,0,1,1.244-2.556,6.033,6.033,0,0,1,2.4-1.665,9.182,9.182,0,0,1,3.41-.585,10.421,10.421,0,0,1,2.588.316,6.823,6.823,0,0,1,2.2.98,4.8,4.8,0,0,1,1.523,1.7,5.17,5.17,0,0,1,.559,2.482v10.92H11.314V-3.258h-.126a4.5,4.5,0,0,1-1.044,1.333,4.707,4.707,0,0,1-1.571.9A6.4,6.4,0,0,1,6.455-.707Zm1.286-3.1a3.734,3.734,0,0,0,1.75-.4,3.06,3.06,0,0,0,1.191-1.07A2.772,2.772,0,0,0,11.114-6.8V-8.518a2.3,2.3,0,0,1-.574.248q-.364.111-.817.2t-.907.158q-.453.069-.822.121a5.555,5.555,0,0,0-1.381.369,2.229,2.229,0,0,0-.917.68,1.692,1.692,0,0,0-.327,1.059,1.611,1.611,0,0,0,.669,1.4A2.851,2.851,0,0,0,7.741-3.806ZM25.041-.7a8.232,8.232,0,0,1-4.274-1.059A7.046,7.046,0,0,1,18.026-4.7a9.5,9.5,0,0,1-.954-4.343,9.451,9.451,0,0,1,.964-4.369,7.133,7.133,0,0,1,2.746-2.941,8.14,8.14,0,0,1,4.237-1.059,8.433,8.433,0,0,1,3.71.769,6.2,6.2,0,0,1,2.519,2.161,6.35,6.35,0,0,1,1.022,3.268H28.035a3.312,3.312,0,0,0-.943-1.955,2.744,2.744,0,0,0-2-.743,3.007,3.007,0,0,0-1.818.564,3.641,3.641,0,0,0-1.207,1.639,6.985,6.985,0,0,0-.432,2.6,7.215,7.215,0,0,0,.427,2.635A3.622,3.622,0,0,0,23.27-4.818a3.011,3.011,0,0,0,1.824.569,2.993,2.993,0,0,0,1.386-.316A2.7,2.7,0,0,0,27.5-5.487a3.513,3.513,0,0,0,.532-1.46h4.237a6.636,6.636,0,0,1-1.007,3.262,6.137,6.137,0,0,1-2.482,2.2A8.277,8.277,0,0,1,25.041-.7Zm13.4-.011A6.691,6.691,0,0,1,35.68-1.25a4.365,4.365,0,0,1-1.913-1.613,4.778,4.778,0,0,1-.7-2.672,4.72,4.72,0,0,1,.5-2.266A4.011,4.011,0,0,1,34.91-9.277a6.536,6.536,0,0,1,1.945-.843,14.644,14.644,0,0,1,2.293-.4q1.412-.148,2.277-.279a3.18,3.18,0,0,0,1.254-.4.88.88,0,0,0,.39-.78v-.063a1.948,1.948,0,0,0-.627-1.549,2.615,2.615,0,0,0-1.776-.548,3.164,3.164,0,0,0-1.929.532,2.5,2.5,0,0,0-.949,1.333l-4.153-.337a5.68,5.68,0,0,1,1.244-2.556,6.033,6.033,0,0,1,2.4-1.665,9.182,9.182,0,0,1,3.41-.585,10.421,10.421,0,0,1,2.588.316,6.823,6.823,0,0,1,2.2.98A4.8,4.8,0,0,1,47-14.415a5.17,5.17,0,0,1,.559,2.482v10.92H43.3V-3.258h-.126a4.5,4.5,0,0,1-1.044,1.333,4.707,4.707,0,0,1-1.571.9A6.4,6.4,0,0,1,38.441-.707Zm1.286-3.1a3.734,3.734,0,0,0,1.75-.4,3.06,3.06,0,0,0,1.191-1.07A2.772,2.772,0,0,0,43.1-6.8V-8.518a2.3,2.3,0,0,1-.574.248q-.364.111-.817.2t-.907.158q-.453.069-.822.121a5.555,5.555,0,0,0-1.381.369,2.229,2.229,0,0,0-.917.68,1.692,1.692,0,0,0-.327,1.059,1.611,1.611,0,0,0,.669,1.4A2.851,2.851,0,0,0,39.727-3.806ZM55.679-.749A6.061,6.061,0,0,1,52.342-1.7a6.494,6.494,0,0,1-2.361-2.814,10.752,10.752,0,0,1-.87-4.569,10.6,10.6,0,0,1,.9-4.633A6.455,6.455,0,0,1,52.4-16.492a6.1,6.1,0,0,1,3.273-.922,5.03,5.03,0,0,1,2.272.459,4.522,4.522,0,0,1,1.476,1.138,5.953,5.953,0,0,1,.859,1.333h.137V-22.6h4.48V-1.013H60.464V-3.606h-.19a5.77,5.77,0,0,1-.891,1.333A4.488,4.488,0,0,1,57.9-1.181,5.152,5.152,0,0,1,55.679-.749ZM57.1-4.322a2.875,2.875,0,0,0,1.839-.6A3.759,3.759,0,0,0,60.1-6.589a7.121,7.121,0,0,0,.406-2.519,7.117,7.117,0,0,0-.4-2.509,3.6,3.6,0,0,0-1.159-1.644,2.949,2.949,0,0,0-1.845-.58,2.912,2.912,0,0,0-1.866.6,3.674,3.674,0,0,0-1.149,1.665,7.154,7.154,0,0,0-.39,2.467,7.236,7.236,0,0,0,.4,2.493,3.76,3.76,0,0,0,1.149,1.687A2.874,2.874,0,0,0,57.1-4.322ZM74.613-.7a8.585,8.585,0,0,1-4.3-1.017A6.881,6.881,0,0,1,67.55-4.6a9.514,9.514,0,0,1-.97-4.432,9.465,9.465,0,0,1,.97-4.385,7.158,7.158,0,0,1,2.735-2.941,7.939,7.939,0,0,1,4.148-1.054,8.569,8.569,0,0,1,2.988.511,6.736,6.736,0,0,1,2.424,1.534A6.986,6.986,0,0,1,81.464-12.8a10.252,10.252,0,0,1,.58,3.61v1.233H68.373v-2.783h9.445A3.44,3.44,0,0,0,77.4-12.46a3.068,3.068,0,0,0-1.165-1.175,3.4,3.4,0,0,0-1.723-.427,3.457,3.457,0,0,0-1.808.469,3.364,3.364,0,0,0-1.228,1.254,3.573,3.573,0,0,0-.453,1.745v2.646a4.5,4.5,0,0,0,.448,2.077,3.207,3.207,0,0,0,1.27,1.349,3.836,3.836,0,0,0,1.95.474,4.246,4.246,0,0,0,1.37-.211,2.844,2.844,0,0,0,1.065-.632A2.75,2.75,0,0,0,77.8-5.925l4.153.274a5.661,5.661,0,0,1-1.291,2.609,6.487,6.487,0,0,1-2.509,1.729A9.428,9.428,0,0,1,74.613-.7Zm9.026-.316V-17.2h4.28v2.857h.19a4.491,4.491,0,0,1,1.687-2.245,4.818,4.818,0,0,1,2.825-.822,4.784,4.784,0,0,1,2.835.827,3.945,3.945,0,0,1,1.56,2.24h.169a4.326,4.326,0,0,1,1.8-2.229,5.572,5.572,0,0,1,3.083-.838,4.944,4.944,0,0,1,3.684,1.439,5.558,5.558,0,0,1,1.418,4.074V-1.013h-4.48v-10a2.651,2.651,0,0,0-.717-2.024,2.513,2.513,0,0,0-1.792-.675,2.414,2.414,0,0,0-1.908.775,2.965,2.965,0,0,0-.685,2.04v9.887H93.231v-10.1a2.621,2.621,0,0,0-.68-1.9,2.367,2.367,0,0,0-1.787-.706,2.473,2.473,0,0,0-1.344.374,2.639,2.639,0,0,0-.943,1.044,3.349,3.349,0,0,0-.348,1.565v9.719Zm25.733,0V-17.2h4.49V-1.013Zm2.256-18.278a2.411,2.411,0,0,1-1.713-.669,2.129,2.129,0,0,1-.712-1.607,2.118,2.118,0,0,1,.712-1.6,2.411,2.411,0,0,1,1.713-.669,2.411,2.411,0,0,1,1.713.669,2.118,2.118,0,0,1,.711,1.6,2.129,2.129,0,0,1-.711,1.607A2.411,2.411,0,0,1,111.628-19.29Zm9.1,18.583a6.691,6.691,0,0,1-2.762-.543,4.365,4.365,0,0,1-1.913-1.613,4.778,4.778,0,0,1-.7-2.672,4.72,4.72,0,0,1,.5-2.266A4.011,4.011,0,0,1,117.2-9.277a6.536,6.536,0,0,1,1.945-.843,14.644,14.644,0,0,1,2.293-.4q1.412-.148,2.277-.279a3.18,3.18,0,0,0,1.254-.4.88.88,0,0,0,.39-.78v-.063a1.948,1.948,0,0,0-.627-1.549,2.615,2.615,0,0,0-1.776-.548,3.164,3.164,0,0,0-1.929.532,2.5,2.5,0,0,0-.949,1.333l-4.153-.337a5.68,5.68,0,0,1,1.244-2.556,6.033,6.033,0,0,1,2.4-1.665,9.182,9.182,0,0,1,3.41-.585,10.421,10.421,0,0,1,2.588.316,6.823,6.823,0,0,1,2.2.98,4.8,4.8,0,0,1,1.523,1.7,5.17,5.17,0,0,1,.559,2.482v10.92h-4.258V-3.258h-.126a4.5,4.5,0,0,1-1.044,1.333,4.707,4.707,0,0,1-1.571.9A6.4,6.4,0,0,1,120.727-.707Zm1.286-3.1a3.734,3.734,0,0,0,1.75-.4,3.06,3.06,0,0,0,1.191-1.07,2.772,2.772,0,0,0,.432-1.528V-8.518a2.3,2.3,0,0,1-.574.248q-.364.111-.817.2t-.907.158q-.453.069-.822.121a5.555,5.555,0,0,0-1.381.369,2.229,2.229,0,0,0-.917.68,1.692,1.692,0,0,0-.327,1.059,1.611,1.611,0,0,0,.669,1.4A2.851,2.851,0,0,0,122.013-3.806Zm14.475-6.567v9.36H132V-17.2h4.28v2.857h.19a4.545,4.545,0,0,1,1.8-2.24,5.481,5.481,0,0,1,3.067-.827,5.694,5.694,0,0,1,2.941.738,5.022,5.022,0,0,1,1.95,2.1,7.082,7.082,0,0,1,.7,3.252V-1.013h-4.49V-10.52a3.271,3.271,0,0,0-.759-2.324,2.733,2.733,0,0,0-2.119-.838,3.191,3.191,0,0,0-1.6.39,2.682,2.682,0,0,0-1.075,1.133A3.932,3.932,0,0,0,136.489-10.373Z" transform="translate(146.887 111.446)" fill="#fff"/>
    <g id="Group_56" data-name="Group 56" transform="translate(101.295 81.295)">
      <path id="Path_18" data-name="Path 18" d="M849.5,856.94l-17.447-11.624-10.412-6.933a1.984,1.984,0,0,1-.728-2.441l.01-.019c.01-.03.026-.06.04-.089l9.289-18.557a.167.167,0,0,1,.02-.033c.023-.043.046-.086.073-.129v0a2,2,0,0,1,2.589-.725.611.611,0,0,1,.085.046,1.96,1.96,0,0,1,.8.843l18.574,37.112A1.994,1.994,0,0,1,849.5,856.94Z" transform="translate(-811.383 -816.164)" fill="url(#linear-gradient)"/>
      <path id="Path_19" data-name="Path 19" d="M819.7,871.382l-17.622,11.736a1.954,1.954,0,0,1-2.832-2.5l9.315-18.61a1.984,1.984,0,0,0,.728,2.441Z" transform="translate(-799.027 -842.23)" fill="url(#linear-gradient-2)"/>
      <path id="Path_20" data-name="Path 20" d="M842.444,838.383,832.056,845.3l-10.412-6.933a1.984,1.984,0,0,1-.728-2.441l.01-.02,9.348-18.68c.023-.043.046-.085.073-.129v0a1.956,1.956,0,0,1,2.589-.725.624.624,0,0,1,.085.046,1.95,1.95,0,0,1,.751.81l9.335,18.656A1.954,1.954,0,0,1,842.444,838.383Z" transform="translate(-811.383 -816.147)" fill="url(#linear-gradient-3)" style="mix-blend-mode: soft-light;isolation: isolate"/>
    </g>
  </g>
</svg>
